<?xml version="1.0" standalone="no"?>
<!DOCTYPE svg PUBLIC "-//W3C//DTD SVG 20010904//EN"
 "http://www.w3.org/TR/2001/REC-SVG-20010904/DTD/svg10.dtd">
<svg version="1.0" xmlns="http://www.w3.org/2000/svg"
 width="500.000000pt" height="500.000000pt" viewBox="0 0 500.000000 500.000000"
 preserveAspectRatio="xMidYMid meet">

<g transform="translate(0.000000,500.000000) scale(0.100000,-0.100000)"
fill="#000000" stroke="none">
<path d="M2283 4980 c-30 -15 -48 -34 -62 -64 -20 -40 -21 -60 -21 -429 l0
-387 -22 -4 c-13 -2 -54 -10 -93 -16 -299 -52 -631 -237 -821 -458 -272 -316
-398 -694 -364 -1085 11 -134 53 -320 89 -402 12 -26 21 -53 21 -60 0 -10
-498 -295 -516 -295 -8 0 -44 81 -78 180 -158 453 -164 897 -16 1340 49 148
149 361 206 438 1 2 26 -4 55 -12 29 -9 85 -16 124 -16 269 0 485 200 502 465
10 146 -40 280 -141 381 -126 124 -280 173 -449 140 -235 -46 -399 -245 -399
-486 -1 -97 12 -151 52 -231 l28 -55 -35 -55 c-98 -151 -215 -430 -268 -638
-138 -539 -74 -1127 174 -1625 75 -149 102 -176 179 -176 40 0 83 22 384 190
186 104 341 190 346 190 4 0 24 -25 46 -54 52 -74 185 -204 281 -276 170 -129
445 -241 662 -270 144 -20 403 -8 528 23 327 83 594 247 790 487 32 39 63 70
70 68 23 -6 505 -293 505 -301 0 -13 -79 -113 -173 -219 -364 -408 -935 -667
-1474 -668 l-121 0 -7 41 c-12 68 -73 177 -134 238 -70 70 -162 117 -269 138
-75 15 -88 15 -164 0 -205 -40 -352 -174 -403 -368 -31 -116 -10 -272 50 -375
62 -105 184 -200 299 -230 70 -19 210 -18 277 2 113 33 227 121 284 219 23 39
30 44 53 39 45 -9 361 15 488 36 393 67 755 231 1074 486 186 149 399 390 525
594 36 60 45 83 45 120 0 77 -21 98 -209 209 -94 56 -247 146 -340 201 l-170
100 29 70 c111 270 131 600 54 896 -67 261 -190 472 -388 669 -225 223 -496
356 -838 410 l-38 6 0 299 0 300 26 0 c47 0 237 -31 318 -51 472 -120 879
-390 1166 -776 41 -56 95 -136 119 -178 l43 -76 -45 -48 c-154 -164 -182 -417
-69 -609 64 -111 197 -204 330 -231 306 -63 592 176 592 495 0 266 -226 492
-494 494 l-41 1 -60 106 c-183 325 -468 618 -800 821 -347 212 -709 322 -1145
347 -94 5 -109 4 -147 -15z m-1408 -582 c48 -24 88 -64 106 -102 62 -137 -41
-296 -194 -296 -126 0 -230 137 -197 259 11 43 66 113 104 133 51 28 133 30
181 6z m1769 -622 c711 -189 1071 -984 744 -1641 -227 -454 -714 -707 -1218
-631 -94 15 -267 69 -345 108 -155 79 -353 252 -438 384 -139 215 -197 412
-197 666 0 238 66 451 203 652 50 74 174 205 247 261 279 214 665 291 1004
201z m1904 -362 c78 -32 132 -110 132 -191 -1 -144 -140 -247 -271 -201 -148
51 -192 241 -81 346 62 58 149 76 220 46z m-2656 -2713 c74 -51 107 -133 89
-216 -35 -157 -224 -218 -340 -111 -90 83 -93 205 -8 295 47 49 82 62 158 58
50 -2 75 -8 101 -26z"/>
<path d="M2165 3212 c-105 -35 -171 -78 -250 -164 -108 -117 -155 -236 -155
-393 0 -171 51 -295 170 -416 130 -131 271 -186 450 -176 113 7 194 32 282 89
86 55 122 91 179 177 157 237 124 538 -80 741 -121 119 -246 170 -421 170 -77
0 -110 -6 -175 -28z m313 -292 c112 -56 167 -145 167 -270 0 -93 -23 -146 -88
-212 -64 -63 -139 -92 -227 -85 -81 5 -140 34 -200 97 -61 64 -84 129 -78 225
6 87 34 142 104 203 57 51 110 70 195 71 54 1 76 -4 127 -29z"/>
</g>
</svg>
